<!DOCTYPE svg PUBLIC "-//W3C//DTD SVG 1.1//EN" "http://www.w3.org/Graphics/SVG/1.1/DTD/svg11.dtd">
<!-- Uploaded to: SVG Repo, www.svgrepo.com, Transformed by: SVG Repo Mixer Tools -->
<svg fill="#00ffd5" height="800px" width="800px" version="1.1" id="Capa_1" xmlns="http://www.w3.org/2000/svg" xmlns:xlink="http://www.w3.org/1999/xlink" viewBox="0 0 379.32 379.32" xml:space="preserve" stroke="#00ffd5" stroke-width="0.00379318" transform="rotate(45)">
<g id="SVGRepo_bgCarrier" stroke-width="0"/>
<g id="SVGRepo_tracerCarrier" stroke-linecap="round" stroke-linejoin="round" stroke="#1a1a1a" stroke-width="1.517272"> <path d="M238.903,0c-4.143,0-7.5,3.357-7.5,7.5v26.551h-65.748c-4.143,0-7.5,3.357-7.5,7.5s3.357,7.5,7.5,7.5h65.748v33.333h-83.488 V7.5c0-4.143-3.357-7.5-7.5-7.5s-7.5,3.357-7.5,7.5v364.318c0,4.143,3.357,7.5,7.5,7.5s7.5-3.357,7.5-7.5v-32.768h83.488v32.768 c0,4.143,3.357,7.5,7.5,7.5s7.5-3.357,7.5-7.5V7.5C246.403,3.357,243.046,0,238.903,0z M147.915,145.717h83.488v33.334h-65.748 c-4.143,0-7.5,3.357-7.5,7.5s3.357,7.5,7.5,7.5h65.748v33.333h-83.488V145.717z M231.403,97.384v33.333h-83.488V97.384H231.403z M147.915,324.051v-33.334h66.747c4.143,0,7.5-3.357,7.5-7.5s-3.357-7.5-7.5-7.5h-66.747v-33.333h83.488v81.667H147.915z"/> </g>
<g id="SVGRepo_iconCarrier"> <path d="M238.903,0c-4.143,0-7.5,3.357-7.5,7.5v26.551h-65.748c-4.143,0-7.5,3.357-7.5,7.5s3.357,7.5,7.5,7.5h65.748v33.333h-83.488 V7.5c0-4.143-3.357-7.5-7.5-7.5s-7.5,3.357-7.5,7.5v364.318c0,4.143,3.357,7.5,7.5,7.5s7.5-3.357,7.5-7.5v-32.768h83.488v32.768 c0,4.143,3.357,7.5,7.5,7.5s7.5-3.357,7.5-7.5V7.5C246.403,3.357,243.046,0,238.903,0z M147.915,145.717h83.488v33.334h-65.748 c-4.143,0-7.5,3.357-7.5,7.5s3.357,7.5,7.5,7.5h65.748v33.333h-83.488V145.717z M231.403,97.384v33.333h-83.488V97.384H231.403z M147.915,324.051v-33.334h66.747c4.143,0,7.5-3.357,7.5-7.5s-3.357-7.5-7.5-7.5h-66.747v-33.333h83.488v81.667H147.915z"/> </g>
</svg>