<!DOCTYPE svg PUBLIC "-//W3C//DTD SVG 1.1//EN" "http://www.w3.org/Graphics/SVG/1.1/DTD/svg11.dtd">
<!-- Uploaded to: SVG Repo, www.svgrepo.com, Transformed by: SVG Repo Mixer Tools -->
<svg fill="#000000" height="202px" width="202px" version="1.1" xmlns="http://www.w3.org/2000/svg" viewBox="-29.7 -29.7 356.40 356.40" xmlns:xlink="http://www.w3.org/1999/xlink" enable-background="new 0 0 297 297" stroke="#000000" stroke-width="0.00297" transform="matrix(1, 0, 0, 1, 0, 0)rotate(45)">
<g id="SVGRepo_bgCarrier" stroke-width="0"/>
<g id="SVGRepo_tracerCarrier" stroke-linecap="round" stroke-linejoin="round" stroke="#CCCCCC" stroke-width="1.1880000000000002"/>
<g id="SVGRepo_iconCarrier"> <g> <path d="m214,0c-9.111,0-16.5,7.387-16.5,16.5v18h-98v-18c0-9.113-7.387-16.5-16.5-16.5-9.111,0-16.5,7.387-16.5,16.5v264c0,9.113 7.389,16.5 16.5,16.5 9.113,0 16.5-7.387 16.5-16.5v-16h98v16c0,9.113 7.389,16.5 16.5,16.5 9.113,0 16.5-7.387 16.5-16.5v-264c0-9.113-7.387-16.5-16.5-16.5zm-114.5,133.5h98v32h-98v-32zm98-66v33h-98v-33h98zm-98,164v-33h98v33h-98z"/> </g> </g>
</svg>